<svg id="regular" enable-background="new 0 0 24 24" height="512" viewBox="0 0 24 24" width="512" xmlns="http://www.w3.org/2000/svg"><path d="m24 7.598c-.044-.264-.08-.47-.36-.641-11.449-6.791-11.287-7.297-12.03-6.848-8.677 5.394-11.092 6.597-11.439 7.017-.315.323-.171.818-.171 8.298-.021.851 7.743 5.462 11.519 8.404.333.237.752.199 1.003-.029 11.224-7.956 11.497-7.636 11.478-8.375 0 0-.012-7.927 0-7.826zm-1.5 6.491-3.876-2.359 3.876-2.697zm-5.277-3.212-4.473-2.722v-6.07l9.126 5.555zm-5.223 3.633-3.876-2.697 3.876-2.359 3.876 2.359zm-.75-12.426v6.074c-1.739 1.079-3.209 1.98-4.451 2.734l-4.675-3.252zm-5.857 9.658c-1.874 1.127-3.098 1.843-3.893 2.32v-5.029zm1.33.924 4.527 3.149v5.999l-9.126-6.349zm6.027 9.149v-5.999l4.527-3.149 4.599 2.799z"/></svg>